# xmcd CD database file
#
# Track frame offsets:
#	150
#	10203
#	20942
#	34361
#	49100
#	60832
#	75734
#	86666
#	98123
#	110633
#	118934
#	133838
#	147359
#	157457
#	168533
#	182987
#
# Disc length: 2608 seconds
#
# Revision: 0
# Processed by: cddbd v1.5.2PL0 Copyright (c) Steve Scherf et al.
# Submitted via: ACXtractor (MTCDDB.DLL V2003.12.21)
#
DISCID=eb0a2e10
DTITLE=Dusty Rankin - A Portrait of Dusty Rankin
DYEAR=2006
DGENRE=Country
TTITLE0=Little Duch Girl
TTITLE1=I Wonder if you Feel the Way I Do
TTITLE2=Sway Back Pinto Pete
TTITLE3=She Was Happy 'Til she Met You
TTITLE4=Weep on My Shoulder
TTITLE5=Your Dreams of Yesterday are Gone
TTITLE6=A Little Boy Whose Name is Boyd
TTITLE7=Have I Told you Lately that I Love You
TTITLE8=Wedding Bells
TTITLE9=Hold on Little Doggie
TTITLE10=Don't Say Goodbye if you Love Me
TTITLE11=Ramblin' Around
TTITLE12=Answer to the Blue Velvet Band
TTITLE13=On the Trail to Home Sweet Home
TTITLE14=Lets Pretend
TTITLE15=Country Girl
EXTD=ID3G:   2 YEAR: 2006
EXTT0=
EXTT1=
EXTT2=
EXTT3=
EXTT4=
EXTT5=
EXTT6=
EXTT7=
EXTT8=
EXTT9=
EXTT10=
EXTT11=
EXTT12=
EXTT13=
EXTT14=
EXTT15=
PLAYORDER=
